<mxfile host="app.diagrams.net" modified="2024-01-14T14:48:27.574Z" agent="Mozilla/5.0 (Windows NT 10.0; Win64; x64) AppleWebKit/537.36 (KHTML, like Gecko) Chrome/120.0.0.0 Safari/537.36 OPR/106.0.0.0 (Edition Yx 05)" version="22.1.18" etag="Xn5MkmDKf_JWc4sYrVTs" type="github">
  <diagram name="Страница — 1" id="Jw7LW3kib4rScFx5Yge1">
    <mxGraphModel>
      <root>
        <mxCell id="0" />
        <mxCell id="1" parent="0" />
      </root>
    </mxGraphModel>
  </diagram>
</mxfile>
